
<global>
amp_veltrack=0
ampeg_release=0.35
</global>

<group>
group_label=Group_0-64
lpc_hicc1=64
lpc_locc1=0

<region>
hikey=A#5
hivel=127
lokey=A5
lovel=1
lpc=AUyhQYyA78HTQ8NBZc9iwRbKdUH00zvBSZIZQUdUvcDQ1/1AdCpowOlUakCTVjDAy9acQFKIxr/Z0sE/+bVGP0rKW0DY+wDALJ9iQDeeS8Cc2rlANcoxwH8okUBomFLA
lpc_rms=-29.68
pitch_keycenter=A#5
sample=Piccolo_turn_major_PP_A#4.opus
</region>

<region>
hikey=A#6
hivel=127
lokey=A6
lovel=1
lpc=YI/JQbJ3y8GPFN5BB/p8wRV6lUFYt5VAhF9NQUfT0ECVJRBBSfktQU/8LEFUGCRBLixUQKn+kUCo04tBl79PP1qNbEFMHuq+3Ph4QJRjMb67TM9A8iQJQEKU27/ABZhA
lpc_rms=-28.25
pitch_keycenter=A#6
sample=Piccolo_turn_major_PP_A#5.opus
</region>

<region>
hikey=C6
hivel=127
lokey=B5
lovel=1
lpc=+0UZQXh7dMGwDFVBKgghwUapGUEqBsvAOInFQO06k8CyjmxAz7l/v8EDCEDn4ne//fWpP2RmNr60KTQ/bImAP4Hwxz5fhWC+f6OXPwFi0z5HjuK+SzW3PyIBfcBeQ11A
lpc_rms=-38.47
pitch_keycenter=C6
sample=Piccolo_turn_major_PP_C5.opus
</region>

<region>
hikey=C7
hivel=127
lokey=B6
lovel=1
lpc=IRqQQdL6bsHIamFBp0wzwB4a9kAOKYlApkYWQYFIbT+xqDhB2gFlP8a2E0EGsdLA4vspQYvgjkBb4MI/P7KuQL8IHzwmZr8/Po+SP71H0T/M/X2/jbm6QMTtVsDpdf8/
lpc_rms=-27.18
pitch_keycenter=C7
sample=Piccolo_turn_major_PP_C6.opus
</region>

<region>
hikey=D6
hivel=127
lokey=C#6
lovel=1
lpc=GW7rQbqDKsK6wwpC9MukwZCPmUGwDPfATSzTQC2DD8EKJ4FBw0LTP8jJ70ByjxrBMce3QGugqECUuQNBaBzfv1iiZUANc5LAlfjvQEUD00BU8R/BTYjwQIxJkMDnSQxB
lpc_rms=-30.68
pitch_keycenter=D6
sample=Piccolo_turn_major_PP_D5.opus
</region>

<region>
hikey=D7
hivel=127
lokey=C#7
lovel=1
lpc=9SiVQcMnd8GEfIVBOjOEv8CCFEHIQgtBaZwKQQNIFEHtU7JAFD3fQN1gEsAdzD1BBz6tQC4Mhb8AWXlAoLQqwB/zZz67ZWDAcOHBP3LoS0BAorzAZKVbQDF9rMBF5+s/
lpc_rms=-27.09
pitch_keycenter=D7
sample=Piccolo_turn_major_PP_D6.opus
</region>

<region>
hivel=127
key=E5
lovel=1
lpc=8iVeQQXz28FoY/tBjyb8wXk610F0RpnBrfZ/QXeSYMHCAS5BU1jxwGDUmUCdA7u/qGceQI7YuL9z7QW+eZOUvRAFAT+VNXa/vkw0QGdyUsBsTxVAWqszv1wjmT8WhO4+
lpc_rms=-38.40
sample=Piccolo_turn_major_PP_E4.opus
</region>

<region>
hikey=E6
hivel=127
lokey=D#6
lovel=1
lpc=Z9WGQafMksHjMnpB4z7RwFSjxECiWM29fKmGQPMzyD85A89AsX+1P8g9iEBJ5U9AQ/VUQB0kYkDk0X1Ab/QIQEW2xEBPfRbAA2KQv8bnuUCokck/Z6fpP29VUD+PYCtA
lpc_rms=-31.80
pitch_keycenter=E6
sample=Piccolo_turn_major_PP_E5.opus
</region>

<region>
hikey=E7
hivel=127
lokey=D#7
lovel=1
lpc=avr2QSRzdMFNAspB04VGPv7ZokFZKHVBVP2OQRNlHkH+g5ZA/yjFwGxmpUG+iwLAwvC6QEPxjsAc+GC/orKRwDEYQkBShglB20YEwZjHjEBz1dHAqziAQE6HTT9iZve/
lpc_rms=-20.88
pitch_keycenter=E7
sample=Piccolo_turn_major_PP_E6.opus
</region>

<region>
hikey=F#5
hivel=127
lokey=F5
lovel=1
lpc=CSb3QApDXcGPTD1BZ80KwWB1GUEm6wjBVyzsQMaOucAEIoBAGfQWwPAs9z+20+m9xJv8PMu2eD9W0JG/Fu/3PhXvx777VrU/1Ro9vScXAj/2WQy/NrLLPBtjDr7FOZU/
lpc_rms=-40.51
pitch_keycenter=F#5
sample=Piccolo_turn_major_PP_F#4.opus
</region>

<region>
hikey=F#6
hivel=127
lokey=F6
lovel=1
lpc=YapeQWqOc8GFtlNBMEWzwJ5UwkBjWxm/GN9+QDfqb0ByeLo/ChiGQEIk6D+VVkFACBWAQI0fQUDjLIA/SRbyP+d5ub8I/W9A7I53P3IuSUCYQ7y/s5VdQM2Yxr92PNA+
lpc_rms=-34.21
pitch_keycenter=F#6
sample=Piccolo_turn_major_PP_F#5.opus
</region>

<region>
hikey=F#7
hivel=127
lokey=F7
lovel=1
lpc=WB6YQSk5WMFmZ55B9tDhwJqEjUEDw+y/Nvx6QRX44MCFqndA/gTDQECEwz6TeKRA7s8ywNhTYUBORInA/CbUQLCZmMCR0vJA8xO2wOn9uEDSw9O/pSznP4rHTEAHIIA+
lpc_rms=-11.39
pitch_keycenter=F#7
sample=Piccolo_turn_major_PP_F#6.opus
</region>

<region>
hikey=G#5
hivel=127
lokey=G5
lovel=1
lpc=L1yEQXlXB8KtBxlCfzv0wfqH2kFzwrzBl2GmQeaLZMHKeh9BfySawJAfjECJIZy/XWyxvsdoEkCtl7G87crpvfefqj/5pf4+23f6P7cWBMDgbyNAz7LjvVQirTydhAVA
lpc_rms=-31.33
pitch_keycenter=G#5
sample=Piccolo_turn_major_PP_G#4.opus
</region>

<region>
hikey=G#6
hivel=127
lokey=G6
lovel=1
lpc=P5ghQfdGEsF2ew9B+Kl5wH5qpUDxiRu/F/y1QHJfvj+PdBlAhDP+Py4nUkDPjKw/4KsrQFKRuj8IDz/AemgqQPiO9D+0aoS/QvhDQHYpmb9HKWm/xS26vtzOtD2EOAy/
lpc_rms=-34.52
pitch_keycenter=G#6
sample=Piccolo_turn_major_PP_G#5.opus
</region>

<region>
hikey=G#7
hivel=127
lokey=G7
lovel=1
lpc=ro4pQZijw8DiGzBB3QP7Pj68KUExn5RAkJDTQBPGuj/jKDtBI4gBQFrbA0G5BFVAkG2gQLFDuECoImZAyfPWQOwu6z+L/dVAwCfLP68i2ECM2fw/eQvXP6n+DkDZPLM/
lpc_rms=-14.70
pitch_keycenter=G#7
sample=Piccolo_turn_major_PP_G#6.opus
</region>
</group>

<group>
group_label=Group_65-127
lpc_hicc1=127
lpc_locc1=65

<region>
hikey=A#5
hivel=127
lokey=A5
lovel=1
lpc=HJqGQWoT58Hz5+pBoRWuwXR1lEEIjGPBipZOQXspDcEnCNlAm4SDwL9cnEBiuSjAcc8uQJzBaL9CHvw/8h5cv2rlBUCxqry/jPt5QPuVWsAoa41AUDNLwOz8nkC1yILA
lpc_rms=-24.86
pitch_keycenter=A#5
sample=Piccolo_turn_major_FF_A#4.opus
</region>

<region>
hikey=A#6
hivel=127
lokey=A6
lovel=1
lpc=XzSlQecQcsHxephBYK+twLdgHUEcDwVBqdZQQeMBwEBUyjRB3KFIQQsyy0DmslNBqtguQPGCX0BluI1BdmYgwMa/d0GROso/Qqd+P/sLPUBrTjdAapGGP7oqfb6Bj6ZA
lpc_rms=-21.89
pitch_keycenter=A#6
sample=Piccolo_turn_major_FF_A#5.opus
</region>

<region>
hikey=C6
hivel=127
lokey=B5
lovel=1
lpc=6OGFQWOKxMFQ0rlBNNR0wejxV0EKFQzBnQ4bQaQZpcBBfZ9AkHWBv9m2ZEDYxcW/MTpiQJsb5T6WD4g+zSZAQLzfhj5h+Xc/IZWwPzW46T/xsLQ+nhMTQNN7AsFZS8JA
lpc_rms=-25.31
pitch_keycenter=C6
sample=Piccolo_turn_major_FF_C5.opus
</region>

<region>
hikey=C7
hivel=127
lokey=B6
lovel=1
lpc=g0kLQrHn3MGCrrpBkgDSvt9Mf0F9WjZAb1uiQef3oT4MiKxBrtVgv0jYx0HOkmfBidlXQRNwiEEAstG/N0c5QSLyKEAiwoJACz+rQGJAaUBk3R9ANioXQTk6JMHJgDZB
lpc_rms=-16.12
pitch_keycenter=C7
sample=Piccolo_turn_major_FF_C6.opus
</region>

<region>
hikey=D6
hivel=127
lokey=C#6
lovel=1
lpc=WK6kQXvP18FBY6tBT6tCwW5OSEEehc/AYqQTQRBLd8BGxq9AKX2yPmCqU0Bv/4w+AUh/QJqdFL90unxA8vEJPyGLN0BEsY4/1xeIQJSriMBEK0rABeS0QH08KUA1Ksa/
lpc_rms=-26.66
pitch_keycenter=D6
sample=Piccolo_turn_major_FF_D5.opus
</region>

<region>
hikey=D7
hivel=127
lokey=C#7
lovel=1
lpc=fQlvQb4vO8HhM2xBPxTKwG2bPkE9WU1AoVAHQYpJlEDcSI1AvOUiQMhksr+9ZgxBIdMtQBJpcEAK5RK/WGnaPkGTjD+Q6fA9GHU1QG6mg0BqN0DA5XpiQBoSkMCtEYZA
lpc_rms=-24.74
pitch_keycenter=D7
sample=Piccolo_turn_major_FF_D6.opus
</region>

<region>
hivel=127
key=E5
lovel=1
lpc=Iig9Qc2hwcEzn8dBL3apwR/UkkHNTWPBvRUyQbjJGMH0pRdBrETuwNMnqkAIgYzAjkefQFR0h8DMsRdA53Fgv/pinT+XHCG+oZKBPVbcvD72qmC/a2o5PyQRT78uedQ/
lpc_rms=-32.44
sample=Piccolo_turn_major_FF_E4.opus
</region>

<region>
hikey=E6
hivel=127
lokey=D#6
lovel=1
lpc=yvlfQQUoncEERJ5BpT8swW5mLUEZP+XAuhMIQWTlDcCV6MtAt73MPscAJUA0K01ARi6PP4QDp0CTkZm/2TOjQI4T5z/FiYm/EkzSv4MOAEEUaEbAPI4rP596K0CDQ0E/
lpc_rms=-28.58
pitch_keycenter=E6
sample=Piccolo_turn_major_FF_E5.opus
</region>

<region>
hikey=E7
hivel=127
lokey=D#7
lovel=1
lpc=NQ6hQYKCgcEY7qpBlf+ywMz1hUH7CIRA4LkVQX1RPkHvZw/Ai3UaQI0NV0Ghriy/nAXaQKmY17xUK3pAQFDDv/dYYEBYOL9AO2JWwMVTvkBn4pDA4B7DQKRhk8CuiW9A
lpc_rms=-19.23
pitch_keycenter=E7
sample=Piccolo_turn_major_FF_E6.opus
</region>

<region>
hikey=F#5
hivel=127
lokey=F5
lovel=1
lpc=IWMKQTR2oMFdXL9BYUmewZeTg0FbmF/BI5lEQR+jG8GunfZABPirwI3gakAcmKy/oypTP6UM6rxKGqu+70ORP+nJib85QZs/HnALv/Aarz/twca/1isQQO+1IsDmswVA
lpc_rms=-32.12
pitch_keycenter=F#5
sample=Piccolo_turn_major_FF_F#4.opus
</region>

<region>
hikey=F#6
hivel=127
lokey=F6
lovel=1
lpc=M5mtQRpc38F92edB3h03wWkDWEHWWKPAdrdxQfeCJz+zlBBBC/FlQG0nI0G7C7FAS+LFQOqTIkG2axFAbLSvQPzK9r55skBBeOedv+9ymUCd2tM/ZTDQQDZwoMBYf5NA
lpc_rms=-23.82
pitch_keycenter=F#6
sample=Piccolo_turn_major_FF_F#5.opus
</region>

<region>
hikey=F#7
hivel=127
lokey=F7
lovel=1
lpc=WB6YQSk5WMFmZ55B9tDhwJqEjUEDw+y/Nvx6QRX44MCFqndA/gTDQECEwz6TeKRA7s8ywNhTYUBORInA/CbUQLCZmMCR0vJA8xO2wOn9uEDSw9O/pSznP4rHTEAHIIA+
lpc_rms=-11.39
pitch_keycenter=F#7
sample=Piccolo_turn_major_FF_F#6.opus
</region>

<region>
hikey=G#5
hivel=127
lokey=G5
lovel=1
lpc=7FtsQfJX+ME77BZCya3uwQWBvEG8JJvByKWZQWpxY8ExVDNBrokIwUuVJEESfu3Ay7mgQONH1r8BPmJAYtlZwCAbf0BbKB+/ACHfP4kdOMAmdaxAzmvWv6EKYr9VKlBA
lpc_rms=-24.69
pitch_keycenter=G#5
sample=Piccolo_turn_major_FF_G#4.opus
</region>

<region>
hikey=G#6
hivel=127
lokey=G6
lovel=1
lpc=ffDhQX2B48Fql89Bpa5jwSRuekGtaoDA12g7QWsegkBFXhxAOPrMQASBFb/OCftAfCu1vwnFokCHvIfB1TQ5QawosL/RT6u/pi4pQOvki8CgVI6/NoWOwKvpUD448Q7A
lpc_rms=-20.46
pitch_keycenter=G#6
sample=Piccolo_turn_major_FF_G#5.opus
</region>

<region>
hikey=G#7
hivel=127
lokey=G7
lovel=1
lpc=ro4pQZijw8DiGzBB3QP7Pj68KUExn5RAkJDTQBPGuj/jKDtBI4gBQFrbA0G5BFVAkG2gQLFDuECoImZAyfPWQOwu6z+L/dVAwCfLP68i2ECM2fw/eQvXP6n+DkDZPLM/
lpc_rms=-14.70
pitch_keycenter=G#7
sample=Piccolo_turn_major_FF_G#6.opus
</region>
</group>